solid OpenSCAD_Model
  facet normal 0.866026 -0.499999 0
    outer loop
      vertex 72.3059 -52.5333 125
      vertex 81.6481 -36.3521 84.3278
      vertex 81.6481 -36.3521 125
    endloop
  endfacet
  facet normal 0.866025 -0.500001 0
    outer loop
      vertex 81.325 -36.9118 83.3333
      vertex 72.3059 -52.5333 125
      vertex 81.325 -36.9118 41.6667
    endloop
  endfacet
  facet normal 0.866042 -0.49997 1.52367e-05
    outer loop
      vertex 81.6481 -36.3521 84.3278
      vertex 72.3059 -52.5333 125
      vertex 81.325 -36.9118 83.3333
    endloop
  endfacet
  facet normal 0.866054 -0.49995 0
    outer loop
      vertex 81.325 -36.9118 83.3333
      vertex 81.6481 -36.3521 42.6611
      vertex 81.6481 -36.3521 82.3389
    endloop
  endfacet
  facet normal 0.866054 -0.49995 0
    outer loop
      vertex 81.6481 -36.3521 42.6611
      vertex 81.325 -36.9118 83.3333
      vertex 81.325 -36.9118 41.6667
    endloop
  endfacet
  facet normal 0.866042 -0.49997 -1.52367e-05
    outer loop
      vertex 72.3059 -52.5333 0
      vertex 81.6481 -36.3521 40.6722
      vertex 81.325 -36.9118 41.6667
    endloop
  endfacet
  facet normal 0.866025 -0.500001 0
    outer loop
      vertex 72.3059 -52.5333 0
      vertex 81.325 -36.9118 41.6667
      vertex 72.3059 -52.5333 125
    endloop
  endfacet
  facet normal 0.866026 -0.499999 0
    outer loop
      vertex 81.6481 -36.3521 40.6722
      vertex 72.3059 -52.5333 0
      vertex 81.6481 -36.3521 0
    endloop
  endfacet
  facet normal 0.743144 -0.669131 0
    outer loop
      vertex 59.8035 -66.4186 125
      vertex 72.3059 -52.5333 0
      vertex 72.3059 -52.5333 125
    endloop
  endfacet
  facet normal 0.743144 -0.669131 0
    outer loop
      vertex 72.3059 -52.5333 0
      vertex 59.8035 -66.4186 125
      vertex 59.8035 -66.4186 0
    endloop
  endfacet
  facet normal 0.994374 -0.10593 0
    outer loop
      vertex 87.4219 -18.5821 83.3239
      vertex 87.425 -18.553 41.6667
      vertex 87.425 -18.553 83.3333
    endloop
  endfacet
  facet normal 0.994374 -0.10593 0
    outer loop
      vertex 87.425 -18.553 41.6667
      vertex 87.4219 -18.5821 83.3239
      vertex 87.4219 -18.5821 41.6761
    endloop
  endfacet
  facet normal 0.994522 -0.104529 0
    outer loop
      vertex 89.375 0 125
      vertex 87.425 -18.553 83.3333
      vertex 89.375 0 0
    endloop
  endfacet
  facet normal 0.994522 -0.104531 9.88157e-07
    outer loop
      vertex 87.4219 -18.5821 125
      vertex 87.425 -18.553 83.3333
      vertex 89.375 0 125
    endloop
  endfacet
  facet normal 0.994374 -0.10593 0
    outer loop
      vertex 87.425 -18.553 83.3333
      vertex 87.4219 -18.5821 125
      vertex 87.4219 -18.5821 83.3427
    endloop
  endfacet
  facet normal 0.994522 -0.104529 0
    outer loop
      vertex 87.425 -18.553 41.6667
      vertex 89.375 0 0
      vertex 87.425 -18.553 83.3333
    endloop
  endfacet
  facet normal 0.994374 -0.10593 0
    outer loop
      vertex 87.4219 -18.5821 0
      vertex 87.425 -18.553 41.6667
      vertex 87.4219 -18.5821 41.6573
    endloop
  endfacet
  facet normal 0.994522 -0.104531 -9.88157e-07
    outer loop
      vertex 87.425 -18.553 41.6667
      vertex 87.4219 -18.5821 0
      vertex 89.375 0 0
    endloop
  endfacet
  facet normal -0 0 1
    outer loop
      vertex 77.6405 -16.503 125
      vertex 87.4219 -18.5821 125
      vertex 89.375 0 125
    endloop
  endfacet
  facet normal 0 0 1
    outer loop
      vertex 77.6405 -16.503 125
      vertex 89.375 0 125
      vertex 79.375 0 125
    endloop
  endfacet
  facet normal 0 0 1
    outer loop
      vertex 87.4219 -18.5821 125
      vertex 77.6405 -16.503 125
      vertex 81.6481 -36.3521 125
    endloop
  endfacet
  facet normal -0 0 1
    outer loop
      vertex 72.5127 -32.2847 125
      vertex 81.6481 -36.3521 125
      vertex 77.6405 -16.503 125
    endloop
  endfacet
  facet normal 0 0 1
    outer loop
      vertex 72.5127 -32.2847 125
      vertex 72.3059 -52.5333 125
      vertex 81.6481 -36.3521 125
    endloop
  endfacet
  facet normal -0 0 1
    outer loop
      vertex 64.2157 -46.6555 125
      vertex 72.3059 -52.5333 125
      vertex 72.5127 -32.2847 125
    endloop
  endfacet
  facet normal 0 0 1
    outer loop
      vertex 64.2157 -46.6555 125
      vertex 59.8035 -66.4186 125
      vertex 72.3059 -52.5333 125
    endloop
  endfacet
  facet normal -0 0 1
    outer loop
      vertex 53.1122 -58.9871 125
      vertex 59.8035 -66.4186 125
      vertex 64.2157 -46.6555 125
    endloop
  endfacet
  facet normal 0 0 1
    outer loop
      vertex 53.1122 -58.9871 125
      vertex 44.6875 -77.401 125
      vertex 59.8035 -66.4186 125
    endloop
  endfacet
  facet normal -0 0 1
    outer loop
      vertex 39.6875 -68.7408 125
      vertex 44.6875 -77.401 125
      vertex 53.1122 -58.9871 125
    endloop
  endfacet
  facet normal 0 0 1
    outer loop
      vertex 39.6875 -68.7408 125
      vertex 27.6184 -85.0007 125
      vertex 44.6875 -77.401 125
    endloop
  endfacet
  facet normal -0 0 1
    outer loop
      vertex 24.5282 -75.4901 125
      vertex 27.6184 -85.0007 125
      vertex 39.6875 -68.7408 125
    endloop
  endfacet
  facet normal 0 0 1
    outer loop
      vertex 24.5282 -75.4901 125
      vertex 9.34223 -88.8854 125
      vertex 27.6184 -85.0007 125
    endloop
  endfacet
  facet normal -0 0 1
    outer loop
      vertex 8.29695 -78.9402 125
      vertex 9.34223 -88.8854 125
      vertex 24.5282 -75.4901 125
    endloop
  endfacet
  facet normal -0 0 1
    outer loop
      vertex -8.29695 -78.9402 125
      vertex 9.34223 -88.8854 125
      vertex 8.29695 -78.9402 125
    endloop
  endfacet
  facet normal 0 0 1
    outer loop
      vertex -8.29695 -78.9402 125
      vertex -9.34223 -88.8854 125
      vertex 9.34223 -88.8854 125
    endloop
  endfacet
  facet normal 0 0 1
    outer loop
      vertex -24.5282 -75.4901 125
      vertex -9.34223 -88.8854 125
      vertex -8.29695 -78.9402 125
    endloop
  endfacet
  facet normal 0 0 1
    outer loop
      vertex -24.5282 -75.4901 125
      vertex -27.6184 -85.0007 125
      vertex -9.34223 -88.8854 125
    endloop
  endfacet
  facet normal 0 0 1
    outer loop
      vertex -39.6875 -68.7408 125
      vertex -27.6184 -85.0007 125
      vertex -24.5282 -75.4901 125
    endloop
  endfacet
  facet normal 0 0 1
    outer loop
      vertex -39.6875 -68.7408 125
      vertex -44.6875 -77.401 125
      vertex -27.6184 -85.0007 125
    endloop
  endfacet
  facet normal 0 0 1
    outer loop
      vertex -53.1122 -58.9871 125
      vertex -44.6875 -77.401 125
      vertex -39.6875 -68.7408 125
    endloop
  endfacet
  facet normal 0 0 1
    outer loop
      vertex -53.1122 -58.9871 125
      vertex -59.8035 -66.4186 125
      vertex -44.6875 -77.401 125
    endloop
  endfacet
  facet normal 0 0 1
    outer loop
      vertex -64.2157 -46.6555 125
      vertex -59.8035 -66.4186 125
      vertex -53.1122 -58.9871 125
    endloop
  endfacet
  facet normal 0 0 1
    outer loop
      vertex -64.2157 -46.6555 125
      vertex -72.3059 -52.5333 125
      vertex -59.8035 -66.4186 125
    endloop
  endfacet
  facet normal 0 0 1
    outer loop
      vertex -72.5127 -32.2847 125
      vertex -72.3059 -52.5333 125
      vertex -64.2157 -46.6555 125
    endloop
  endfacet
  facet normal 0 0 1
    outer loop
      vertex -81.6481 -36.3521 125
      vertex -72.5127 -32.2847 125
      vertex -77.6405 -16.503 125
    endloop
  endfacet
  facet normal 0 0 1
    outer loop
      vertex -72.5127 -32.2847 125
      vertex -81.6481 -36.3521 125
      vertex -72.3059 -52.5333 125
    endloop
  endfacet
  facet normal 0 0 1
    outer loop
      vertex -87.4219 -18.5821 125
      vertex -77.6405 -16.503 125
      vertex -79.375 0 125
    endloop
  endfacet
  facet normal 0 0 1
    outer loop
      vertex -77.6405 -16.503 125
      vertex -87.4219 -18.5821 125
      vertex -81.6481 -36.3521 125
    endloop
  endfacet
  facet normal 0 -0 1
    outer loop
      vertex -87.4219 -18.5821 125
      vertex -79.375 0 125
      vertex -89.375 0 125
    endloop
  endfacet
  facet normal 0 0 -1
    outer loop
      vertex 77.6405 -16.503 0
      vertex 87.4219 -18.5821 0
      vertex 81.6481 -36.3521 0
    endloop
  endfacet
  facet normal 0 0 -1
    outer loop
      vertex 87.4219 -18.5821 0
      vertex 77.6405 -16.503 0
      vertex 89.375 0 0
    endloop
  endfacet
  facet normal -0 0 -1
    outer loop
      vertex 89.375 0 0
      vertex 77.6405 -16.503 0
      vertex 79.375 0 0
    endloop
  endfacet
  facet normal 0 0 -1
    outer loop
      vertex 81.6481 -36.3521 0
      vertex 72.5127 -32.2847 0
      vertex 77.6405 -16.503 0
    endloop
  endfacet
  facet normal 0 0 -1
    outer loop
      vertex 72.3059 -52.5333 0
      vertex 72.5127 -32.2847 0
      vertex 81.6481 -36.3521 0
    endloop
  endfacet
  facet normal 0 0 -1
    outer loop
      vertex 72.3059 -52.5333 0
      vertex 64.2157 -46.6555 0
      vertex 72.5127 -32.2847 0
    endloop
  endfacet
  facet normal 0 0 -1
    outer loop
      vertex 59.8035 -66.4186 0
      vertex 64.2157 -46.6555 0
      vertex 72.3059 -52.5333 0
    endloop
  endfacet
  facet normal 0 0 -1
    outer loop
      vertex 59.8035 -66.4186 0
      vertex 53.1122 -58.9871 0
      vertex 64.2157 -46.6555 0
    endloop
  endfacet
  facet normal 0 0 -1
    outer loop
      vertex 44.6875 -77.401 0
      vertex 53.1122 -58.9871 0
      vertex 59.8035 -66.4186 0
    endloop
  endfacet
  facet normal 0 0 -1
    outer loop
      vertex 44.6875 -77.401 0
      vertex 39.6875 -68.7408 0
      vertex 53.1122 -58.9871 0
    endloop
  endfacet
  facet normal 0 0 -1
    outer loop
      vertex 27.6184 -85.0007 0
      vertex 39.6875 -68.7408 0
      vertex 44.6875 -77.401 0
    endloop
  endfacet
  facet normal 0 0 -1
    outer loop
      vertex 27.6184 -85.0007 0
      vertex 24.5282 -75.4901 0
      vertex 39.6875 -68.7408 0
    endloop
  endfacet
  facet normal 0 0 -1
    outer loop
      vertex 9.34223 -88.8854 0
      vertex 24.5282 -75.4901 0
      vertex 27.6184 -85.0007 0
    endloop
  endfacet
  facet normal 0 0 -1
    outer loop
      vertex 9.34223 -88.8854 0
      vertex 8.29695 -78.9402 0
      vertex 24.5282 -75.4901 0
    endloop
  endfacet
  facet normal 0 0 -1
    outer loop
      vertex 9.34223 -88.8854 0
      vertex -8.29695 -78.9402 0
      vertex 8.29695 -78.9402 0
    endloop
  endfacet
  facet normal 0 0 -1
    outer loop
      vertex -9.34223 -88.8854 0
      vertex -8.29695 -78.9402 0
      vertex 9.34223 -88.8854 0
    endloop
  endfacet
  facet normal 0 0 -1
    outer loop
      vertex -9.34223 -88.8854 0
      vertex -24.5282 -75.4901 0
      vertex -8.29695 -78.9402 0
    endloop
  endfacet
  facet normal 0 0 -1
    outer loop
      vertex -27.6184 -85.0007 0
      vertex -24.5282 -75.4901 0
      vertex -9.34223 -88.8854 0
    endloop
  endfacet
  facet normal 0 0 -1
    outer loop
      vertex -27.6184 -85.0007 0
      vertex -39.6875 -68.7408 0
      vertex -24.5282 -75.4901 0
    endloop
  endfacet
  facet normal 0 0 -1
    outer loop
      vertex -44.6875 -77.401 0
      vertex -39.6875 -68.7408 0
      vertex -27.6184 -85.0007 0
    endloop
  endfacet
  facet normal 0 0 -1
    outer loop
      vertex -44.6875 -77.401 0
      vertex -53.1122 -58.9871 0
      vertex -39.6875 -68.7408 0
    endloop
  endfacet
  facet normal 0 0 -1
    outer loop
      vertex -59.8035 -66.4186 0
      vertex -53.1122 -58.9871 0
      vertex -44.6875 -77.401 0
    endloop
  endfacet
  facet normal 0 0 -1
    outer loop
      vertex -59.8035 -66.4186 0
      vertex -64.2157 -46.6555 0
      vertex -53.1122 -58.9871 0
    endloop
  endfacet
  facet normal 0 0 -1
    outer loop
      vertex -72.3059 -52.5333 0
      vertex -64.2157 -46.6555 0
      vertex -59.8035 -66.4186 0
    endloop
  endfacet
  facet normal 0 0 -1
    outer loop
      vertex -72.3059 -52.5333 0
      vertex -72.5127 -32.2847 0
      vertex -64.2157 -46.6555 0
    endloop
  endfacet
  facet normal 0 0 -1
    outer loop
      vertex -81.6481 -36.3521 0
      vertex -72.5127 -32.2847 0
      vertex -72.3059 -52.5333 0
    endloop
  endfacet
  facet normal -0 0 -1
    outer loop
      vertex -72.5127 -32.2847 0
      vertex -81.6481 -36.3521 0
      vertex -77.6405 -16.503 0
    endloop
  endfacet
  facet normal 0 0 -1
    outer loop
      vertex -87.4219 -18.5821 0
      vertex -77.6405 -16.503 0
      vertex -81.6481 -36.3521 0
    endloop
  endfacet
  facet normal -0 0 -1
    outer loop
      vertex -77.6405 -16.503 0
      vertex -87.4219 -18.5821 0
      vertex -79.375 0 0
    endloop
  endfacet
  facet normal -0 0 -1
    outer loop
      vertex -79.375 0 0
      vertex -87.4219 -18.5821 0
      vertex -89.375 0 0
    endloop
  endfacet
  facet normal 0 -1 0
    outer loop
      vertex -9.34223 -88.8854 0
      vertex 9.34223 -88.8854 125
      vertex -9.34223 -88.8854 125
    endloop
  endfacet
  facet normal 0 -1 -0
    outer loop
      vertex 9.34223 -88.8854 125
      vertex -9.34223 -88.8854 0
      vertex 9.34223 -88.8854 0
    endloop
  endfacet
  facet normal -0.406739 -0.913545 0
    outer loop
      vertex -44.6875 -77.401 0
      vertex -27.6184 -85.0007 125
      vertex -44.6875 -77.401 125
    endloop
  endfacet
  facet normal -0.406739 -0.913545 -0
    outer loop
      vertex -27.6184 -85.0007 125
      vertex -44.6875 -77.401 0
      vertex -27.6184 -85.0007 0
    endloop
  endfacet
  facet normal -0.207911 -0.978148 0
    outer loop
      vertex -27.6184 -85.0007 0
      vertex -9.34223 -88.8854 125
      vertex -27.6184 -85.0007 125
    endloop
  endfacet
  facet normal -0.207911 -0.978148 -0
    outer loop
      vertex -9.34223 -88.8854 125
      vertex -27.6184 -85.0007 0
      vertex -9.34223 -88.8854 0
    endloop
  endfacet
  facet normal 0.587785 -0.809017 0
    outer loop
      vertex 44.6875 -77.401 0
      vertex 59.8035 -66.4186 125
      vertex 44.6875 -77.401 125
    endloop
  endfacet
  facet normal 0.587785 -0.809017 0
    outer loop
      vertex 59.8035 -66.4186 125
      vertex 44.6875 -77.401 0
      vertex 59.8035 -66.4186 0
    endloop
  endfacet
  facet normal 0.406739 -0.913545 0
    outer loop
      vertex 27.6184 -85.0007 0
      vertex 44.6875 -77.401 125
      vertex 27.6184 -85.0007 125
    endloop
  endfacet
  facet normal 0.406739 -0.913545 0
    outer loop
      vertex 44.6875 -77.401 125
      vertex 27.6184 -85.0007 0
      vertex 44.6875 -77.401 0
    endloop
  endfacet
  facet normal -0.951061 -0.309003 0
    outer loop
      vertex -87.4219 -18.5821 0
      vertex -86.8425 -20.3654 39.8739
      vertex -87.4219 -18.5821 41.6573
    endloop
  endfacet
  facet normal -0.951057 -0.309015 -5.9641e-07
    outer loop
      vertex -87.4219 -18.5821 0
      vertex -85.3175 -25.0589 38.7659
      vertex -86.8425 -20.3654 39.8739
    endloop
  endfacet
  facet normal -0.951057 -0.309016 -7.72917e-07
    outer loop
      vertex -81.6481 -36.3521 0
      vertex -85.3175 -25.0589 38.7659
      vertex -87.4219 -18.5821 0
    endloop
  endfacet
  facet normal -0.951058 -0.309014 -1.44667e-06
    outer loop
      vertex -85.3175 -25.0589 38.7659
      vertex -81.6481 -36.3521 0
      vertex -83.4325 -30.8604 38.7659
    endloop
  endfacet
  facet normal -0.951055 -0.309021 -3.05809e-07
    outer loop
      vertex -83.4325 -30.8604 38.7659
      vertex -81.6481 -36.3521 0
      vertex -81.9075 -35.5538 39.8739
    endloop
  endfacet
  facet normal -0.951051 -0.309035 0
    outer loop
      vertex -81.9075 -35.5538 39.8739
      vertex -81.6481 -36.3521 0
      vertex -81.6481 -36.3521 40.6722
    endloop
  endfacet
  facet normal -0.951061 -0.309003 0
    outer loop
      vertex -86.8425 -20.3654 85.1261
      vertex -87.4219 -18.5821 125
      vertex -87.4219 -18.5821 83.3427
    endloop
  endfacet
  facet normal -0.951057 -0.309015 5.9641e-07
    outer loop
      vertex -85.3175 -25.0589 86.2341
      vertex -87.4219 -18.5821 125
      vertex -86.8425 -20.3654 85.1261
    endloop
  endfacet
  facet normal -0.951058 -0.309014 1.44667e-06
    outer loop
      vertex -81.6481 -36.3521 125
      vertex -85.3175 -25.0589 86.2341
      vertex -83.4325 -30.8604 86.2341
    endloop
  endfacet
  facet normal -0.951055 -0.309021 3.05809e-07
    outer loop
      vertex -81.6481 -36.3521 125
      vertex -83.4325 -30.8604 86.2341
      vertex -81.9075 -35.5538 85.1261
    endloop
  endfacet
  facet normal -0.951051 -0.309035 -0
    outer loop
      vertex -81.6481 -36.3521 125
      vertex -81.9075 -35.5538 85.1261
      vertex -81.6481 -36.3521 84.3278
    endloop
  endfacet
  facet normal -0.951057 -0.309016 7.72917e-07
    outer loop
      vertex -85.3175 -25.0589 86.2341
      vertex -81.6481 -36.3521 125
      vertex -87.4219 -18.5821 125
    endloop
  endfacet
  facet normal -0.951061 -0.309003 0
    outer loop
      vertex -86.8425 -20.3654 43.4594
      vertex -87.4219 -18.5821 83.3239
      vertex -87.4219 -18.5821 41.6761
    endloop
  endfacet
  facet normal -0.951061 -0.309003 0
    outer loop
      vertex -86.8425 -20.3654 43.4594
      vertex -86.8425 -20.3654 81.5406
      vertex -87.4219 -18.5821 83.3239
    endloop
  endfacet
  facet normal -0.951057 -0.309015 0
    outer loop
      vertex -85.3175 -25.0589 44.5674
      vertex -86.8425 -20.3654 81.5406
      vertex -86.8425 -20.3654 43.4594
    endloop
  endfacet
  facet normal -0.951057 -0.309015 0
    outer loop
      vertex -85.3175 -25.0589 44.5674
      vertex -85.3175 -25.0589 80.4326
      vertex -86.8425 -20.3654 81.5406
    endloop
  endfacet
  facet normal -0.951058 -0.309014 0
    outer loop
      vertex -83.4325 -30.8604 44.5674
      vertex -85.3175 -25.0589 80.4326
      vertex -85.3175 -25.0589 44.5674
    endloop
  endfacet
  facet normal -0.951058 -0.309014 0
    outer loop
      vertex -83.4325 -30.8604 44.5674
      vertex -83.4325 -30.8604 80.4326
      vertex -85.3175 -25.0589 80.4326
    endloop
  endfacet
  facet normal -0.951055 -0.309021 0
    outer loop
      vertex -81.9075 -35.5538 43.4594
      vertex -83.4325 -30.8604 80.4326
      vertex -83.4325 -30.8604 44.5674
    endloop
  endfacet
  facet normal -0.951055 -0.309021 0
    outer loop
      vertex -81.9075 -35.5538 43.4594
      vertex -81.9075 -35.5538 81.5406
      vertex -83.4325 -30.8604 80.4326
    endloop
  endfacet
  facet normal -0.951051 -0.309035 0
    outer loop
      vertex -81.6481 -36.3521 42.6611
      vertex -81.9075 -35.5538 81.5406
      vertex -81.9075 -35.5538 43.4594
    endloop
  endfacet
  facet normal -0.951051 -0.309035 0
    outer loop
      vertex -81.9075 -35.5538 81.5406
      vertex -81.6481 -36.3521 42.6611
      vertex -81.6481 -36.3521 82.3389
    endloop
  endfacet
  facet normal -0.866026 -0.499999 0
    outer loop
      vertex -72.3059 -52.5333 0
      vertex -81.6481 -36.3521 40.6722
      vertex -81.6481 -36.3521 0
    endloop
  endfacet
  facet normal -0.866025 -0.500001 0
    outer loop
      vertex -81.325 -36.9118 41.6667
      vertex -72.3059 -52.5333 0
      vertex -81.325 -36.9118 83.3333
    endloop
  endfacet
  facet normal -0.866042 -0.49997 -1.52367e-05
    outer loop
      vertex -81.6481 -36.3521 40.6722
      vertex -72.3059 -52.5333 0
      vertex -81.325 -36.9118 41.6667
    endloop
  endfacet
  facet normal -0.866054 -0.49995 0
    outer loop
      vertex -81.325 -36.9118 41.6667
      vertex -81.6481 -36.3521 82.3389
      vertex -81.6481 -36.3521 42.6611
    endloop
  endfacet
  facet normal -0.866054 -0.49995 0
    outer loop
      vertex -81.6481 -36.3521 82.3389
      vertex -81.325 -36.9118 41.6667
      vertex -81.325 -36.9118 83.3333
    endloop
  endfacet
  facet normal -0.866042 -0.49997 1.52367e-05
    outer loop
      vertex -72.3059 -52.5333 125
      vertex -81.6481 -36.3521 84.3278
      vertex -81.325 -36.9118 83.3333
    endloop
  endfacet
  facet normal -0.866025 -0.500001 -0
    outer loop
      vertex -72.3059 -52.5333 125
      vertex -81.325 -36.9118 83.3333
      vertex -72.3059 -52.5333 0
    endloop
  endfacet
  facet normal -0.866026 -0.499999 0
    outer loop
      vertex -81.6481 -36.3521 84.3278
      vertex -72.3059 -52.5333 125
      vertex -81.6481 -36.3521 125
    endloop
  endfacet
  facet normal -0.743144 -0.669131 0
    outer loop
      vertex -59.8035 -66.4186 0
      vertex -72.3059 -52.5333 125
      vertex -72.3059 -52.5333 0
    endloop
  endfacet
  facet normal -0.743144 -0.669131 0
    outer loop
      vertex -72.3059 -52.5333 125
      vertex -59.8035 -66.4186 0
      vertex -59.8035 -66.4186 125
    endloop
  endfacet
  facet normal 0.951061 -0.309003 0
    outer loop
      vertex 86.8425 -20.3654 39.8739
      vertex 87.4219 -18.5821 0
      vertex 87.4219 -18.5821 41.6573
    endloop
  endfacet
  facet normal 0.951057 -0.309015 -5.9641e-07
    outer loop
      vertex 85.3175 -25.0589 38.7659
      vertex 87.4219 -18.5821 0
      vertex 86.8425 -20.3654 39.8739
    endloop
  endfacet
  facet normal 0.951058 -0.309014 -1.44667e-06
    outer loop
      vertex 81.6481 -36.3521 0
      vertex 85.3175 -25.0589 38.7659
      vertex 83.4325 -30.8604 38.7659
    endloop
  endfacet
  facet normal 0.951055 -0.309021 -3.05809e-07
    outer loop
      vertex 81.6481 -36.3521 0
      vertex 83.4325 -30.8604 38.7659
      vertex 81.9075 -35.5538 39.8739
    endloop
  endfacet
  facet normal 0.951051 -0.309035 0
    outer loop
      vertex 81.6481 -36.3521 0
      vertex 81.9075 -35.5538 39.8739
      vertex 81.6481 -36.3521 40.6722
    endloop
  endfacet
  facet normal 0.951057 -0.309016 -7.72917e-07
    outer loop
      vertex 85.3175 -25.0589 38.7659
      vertex 81.6481 -36.3521 0
      vertex 87.4219 -18.5821 0
    endloop
  endfacet
  facet normal 0.951061 -0.309003 0
    outer loop
      vertex 87.4219 -18.5821 125
      vertex 86.8425 -20.3654 85.1261
      vertex 87.4219 -18.5821 83.3427
    endloop
  endfacet
  facet normal 0.951057 -0.309015 5.9641e-07
    outer loop
      vertex 87.4219 -18.5821 125
      vertex 85.3175 -25.0589 86.2341
      vertex 86.8425 -20.3654 85.1261
    endloop
  endfacet
  facet normal 0.951057 -0.309016 7.72917e-07
    outer loop
      vertex 81.6481 -36.3521 125
      vertex 85.3175 -25.0589 86.2341
      vertex 87.4219 -18.5821 125
    endloop
  endfacet
  facet normal 0.951058 -0.309014 1.44667e-06
    outer loop
      vertex 85.3175 -25.0589 86.2341
      vertex 81.6481 -36.3521 125
      vertex 83.4325 -30.8604 86.2341
    endloop
  endfacet
  facet normal 0.951055 -0.309021 3.05809e-07
    outer loop
      vertex 83.4325 -30.8604 86.2341
      vertex 81.6481 -36.3521 125
      vertex 81.9075 -35.5538 85.1261
    endloop
  endfacet
  facet normal 0.951051 -0.309035 0
    outer loop
      vertex 81.9075 -35.5538 85.1261
      vertex 81.6481 -36.3521 125
      vertex 81.6481 -36.3521 84.3278
    endloop
  endfacet
  facet normal 0.951061 -0.309003 0
    outer loop
      vertex 86.8425 -20.3654 81.5406
      vertex 87.4219 -18.5821 41.6761
      vertex 87.4219 -18.5821 83.3239
    endloop
  endfacet
  facet normal 0.951061 -0.309003 0
    outer loop
      vertex 86.8425 -20.3654 81.5406
      vertex 86.8425 -20.3654 43.4594
      vertex 87.4219 -18.5821 41.6761
    endloop
  endfacet
  facet normal 0.951057 -0.309015 0
    outer loop
      vertex 85.3175 -25.0589 80.4326
      vertex 86.8425 -20.3654 43.4594
      vertex 86.8425 -20.3654 81.5406
    endloop
  endfacet
  facet normal 0.951057 -0.309015 0
    outer loop
      vertex 85.3175 -25.0589 80.4326
      vertex 85.3175 -25.0589 44.5674
      vertex 86.8425 -20.3654 43.4594
    endloop
  endfacet
  facet normal 0.951058 -0.309014 0
    outer loop
      vertex 83.4325 -30.8604 80.4326
      vertex 85.3175 -25.0589 44.5674
      vertex 85.3175 -25.0589 80.4326
    endloop
  endfacet
  facet normal 0.951058 -0.309014 0
    outer loop
      vertex 83.4325 -30.8604 80.4326
      vertex 83.4325 -30.8604 44.5674
      vertex 85.3175 -25.0589 44.5674
    endloop
  endfacet
  facet normal 0.951055 -0.309021 0
    outer loop
      vertex 81.9075 -35.5538 81.5406
      vertex 83.4325 -30.8604 44.5674
      vertex 83.4325 -30.8604 80.4326
    endloop
  endfacet
  facet normal 0.951055 -0.309021 0
    outer loop
      vertex 81.9075 -35.5538 81.5406
      vertex 81.9075 -35.5538 43.4594
      vertex 83.4325 -30.8604 44.5674
    endloop
  endfacet
  facet normal 0.951051 -0.309035 0
    outer loop
      vertex 81.6481 -36.3521 82.3389
      vertex 81.9075 -35.5538 43.4594
      vertex 81.9075 -35.5538 81.5406
    endloop
  endfacet
  facet normal 0.951051 -0.309035 0
    outer loop
      vertex 81.9075 -35.5538 43.4594
      vertex 81.6481 -36.3521 82.3389
      vertex 81.6481 -36.3521 42.6611
    endloop
  endfacet
  facet normal 0.207911 -0.978148 0
    outer loop
      vertex 9.34223 -88.8854 0
      vertex 27.6184 -85.0007 125
      vertex 9.34223 -88.8854 125
    endloop
  endfacet
  facet normal 0.207911 -0.978148 0
    outer loop
      vertex 27.6184 -85.0007 125
      vertex 9.34223 -88.8854 0
      vertex 27.6184 -85.0007 0
    endloop
  endfacet
  facet normal -0.994374 -0.10593 0
    outer loop
      vertex -87.4219 -18.5821 41.6761
      vertex -87.425 -18.553 83.3333
      vertex -87.425 -18.553 41.6667
    endloop
  endfacet
  facet normal -0.994374 -0.10593 0
    outer loop
      vertex -87.425 -18.553 83.3333
      vertex -87.4219 -18.5821 41.6761
      vertex -87.4219 -18.5821 83.3239
    endloop
  endfacet
  facet normal -0.994522 -0.104529 0
    outer loop
      vertex -89.375 0 0
      vertex -87.425 -18.553 41.6667
      vertex -89.375 0 125
    endloop
  endfacet
  facet normal -0.994522 -0.104531 -9.88157e-07
    outer loop
      vertex -87.4219 -18.5821 0
      vertex -87.425 -18.553 41.6667
      vertex -89.375 0 0
    endloop
  endfacet
  facet normal -0.994374 -0.10593 0
    outer loop
      vertex -87.425 -18.553 41.6667
      vertex -87.4219 -18.5821 0
      vertex -87.4219 -18.5821 41.6573
    endloop
  endfacet
  facet normal -0.994522 -0.104529 -0
    outer loop
      vertex -87.425 -18.553 83.3333
      vertex -89.375 0 125
      vertex -87.425 -18.553 41.6667
    endloop
  endfacet
  facet normal -0.994374 -0.10593 -0
    outer loop
      vertex -87.4219 -18.5821 125
      vertex -87.425 -18.553 83.3333
      vertex -87.4219 -18.5821 83.3427
    endloop
  endfacet
  facet normal -0.994522 -0.104531 9.88157e-07
    outer loop
      vertex -87.425 -18.553 83.3333
      vertex -87.4219 -18.5821 125
      vertex -89.375 0 125
    endloop
  endfacet
  facet normal -0.587785 -0.809017 0
    outer loop
      vertex -59.8035 -66.4186 0
      vertex -44.6875 -77.401 125
      vertex -59.8035 -66.4186 125
    endloop
  endfacet
  facet normal -0.587785 -0.809017 -0
    outer loop
      vertex -44.6875 -77.401 125
      vertex -59.8035 -66.4186 0
      vertex -44.6875 -77.401 0
    endloop
  endfacet
  facet normal -0.587789 0.809015 0
    outer loop
      vertex 53.1122 -58.9871 0
      vertex 39.6875 -68.7408 125
      vertex 53.1122 -58.9871 125
    endloop
  endfacet
  facet normal -0.587789 0.809015 0
    outer loop
      vertex 39.6875 -68.7408 125
      vertex 53.1122 -58.9871 0
      vertex 39.6875 -68.7408 0
    endloop
  endfacet
  facet normal -0.994522 0.104526 0
    outer loop
      vertex 77.6405 -16.503 0
      vertex 79.375 0 125
      vertex 79.375 0 0
    endloop
  endfacet
  facet normal -0.994522 0.104526 0
    outer loop
      vertex 79.375 0 125
      vertex 77.6405 -16.503 0
      vertex 77.6405 -16.503 125
    endloop
  endfacet
  facet normal 0.587789 0.809015 -0
    outer loop
      vertex -39.6875 -68.7408 0
      vertex -53.1122 -58.9871 125
      vertex -39.6875 -68.7408 125
    endloop
  endfacet
  facet normal 0.587789 0.809015 0
    outer loop
      vertex -53.1122 -58.9871 125
      vertex -39.6875 -68.7408 0
      vertex -53.1122 -58.9871 0
    endloop
  endfacet
  facet normal -0.406734 0.913547 0
    outer loop
      vertex 39.6875 -68.7408 0
      vertex 24.5282 -75.4901 125
      vertex 39.6875 -68.7408 125
    endloop
  endfacet
  facet normal -0.406734 0.913547 0
    outer loop
      vertex 24.5282 -75.4901 125
      vertex 39.6875 -68.7408 0
      vertex 24.5282 -75.4901 0
    endloop
  endfacet
  facet normal 0.207914 0.978147 -0
    outer loop
      vertex -8.29695 -78.9402 0
      vertex -24.5282 -75.4901 125
      vertex -8.29695 -78.9402 125
    endloop
  endfacet
  facet normal 0.207914 0.978147 0
    outer loop
      vertex -24.5282 -75.4901 125
      vertex -8.29695 -78.9402 0
      vertex -24.5282 -75.4901 0
    endloop
  endfacet
  facet normal 0.951056 0.309018 0
    outer loop
      vertex -72.5127 -32.2847 125
      vertex -77.6405 -16.503 0
      vertex -77.6405 -16.503 125
    endloop
  endfacet
  facet normal 0.951056 0.309018 0
    outer loop
      vertex -77.6405 -16.503 0
      vertex -72.5127 -32.2847 125
      vertex -72.5127 -32.2847 0
    endloop
  endfacet
  facet normal 0.406734 0.913547 -0
    outer loop
      vertex -24.5282 -75.4901 0
      vertex -39.6875 -68.7408 125
      vertex -24.5282 -75.4901 125
    endloop
  endfacet
  facet normal 0.406734 0.913547 0
    outer loop
      vertex -39.6875 -68.7408 125
      vertex -24.5282 -75.4901 0
      vertex -39.6875 -68.7408 0
    endloop
  endfacet
  facet normal -0.866025 0.500001 0
    outer loop
      vertex 64.2157 -46.6555 0
      vertex 72.5127 -32.2847 125
      vertex 72.5127 -32.2847 0
    endloop
  endfacet
  facet normal -0.866025 0.500001 0
    outer loop
      vertex 72.5127 -32.2847 125
      vertex 64.2157 -46.6555 0
      vertex 64.2157 -46.6555 125
    endloop
  endfacet
  facet normal -0.743143 0.669133 0
    outer loop
      vertex 53.1122 -58.9871 0
      vertex 64.2157 -46.6555 125
      vertex 64.2157 -46.6555 0
    endloop
  endfacet
  facet normal -0.743143 0.669133 0
    outer loop
      vertex 64.2157 -46.6555 125
      vertex 53.1122 -58.9871 0
      vertex 53.1122 -58.9871 125
    endloop
  endfacet
  facet normal -0.951056 0.309018 0
    outer loop
      vertex 72.5127 -32.2847 0
      vertex 77.6405 -16.503 125
      vertex 77.6405 -16.503 0
    endloop
  endfacet
  facet normal -0.951056 0.309018 0
    outer loop
      vertex 77.6405 -16.503 125
      vertex 72.5127 -32.2847 0
      vertex 72.5127 -32.2847 125
    endloop
  endfacet
  facet normal 0.743143 0.669133 0
    outer loop
      vertex -53.1122 -58.9871 125
      vertex -64.2157 -46.6555 0
      vertex -64.2157 -46.6555 125
    endloop
  endfacet
  facet normal 0.743143 0.669133 0
    outer loop
      vertex -64.2157 -46.6555 0
      vertex -53.1122 -58.9871 125
      vertex -53.1122 -58.9871 0
    endloop
  endfacet
  facet normal 0.866025 0.500001 0
    outer loop
      vertex -64.2157 -46.6555 125
      vertex -72.5127 -32.2847 0
      vertex -72.5127 -32.2847 125
    endloop
  endfacet
  facet normal 0.866025 0.500001 0
    outer loop
      vertex -72.5127 -32.2847 0
      vertex -64.2157 -46.6555 125
      vertex -64.2157 -46.6555 0
    endloop
  endfacet
  facet normal 0 1 -0
    outer loop
      vertex 8.29695 -78.9402 0
      vertex -8.29695 -78.9402 125
      vertex 8.29695 -78.9402 125
    endloop
  endfacet
  facet normal 0 1 0
    outer loop
      vertex -8.29695 -78.9402 125
      vertex 8.29695 -78.9402 0
      vertex -8.29695 -78.9402 0
    endloop
  endfacet
  facet normal 0.994522 0.104526 0
    outer loop
      vertex -77.6405 -16.503 125
      vertex -79.375 0 0
      vertex -79.375 0 125
    endloop
  endfacet
  facet normal 0.994522 0.104526 0
    outer loop
      vertex -79.375 0 0
      vertex -77.6405 -16.503 125
      vertex -77.6405 -16.503 0
    endloop
  endfacet
  facet normal -0.207914 0.978147 0
    outer loop
      vertex 24.5282 -75.4901 0
      vertex 8.29695 -78.9402 125
      vertex 24.5282 -75.4901 125
    endloop
  endfacet
  facet normal -0.207914 0.978147 0
    outer loop
      vertex 8.29695 -78.9402 125
      vertex 24.5282 -75.4901 0
      vertex 8.29695 -78.9402 0
    endloop
  endfacet
  facet normal 0 1 0
    outer loop
      vertex 89.375 0 125
      vertex 84.8385 0 84.7599
      vertex 79.375 0 125
    endloop
  endfacet
  facet normal 0 1 0
    outer loop
      vertex 89.375 0 125
      vertex 85.875 0 83.3333
      vertex 84.8385 0 84.7599
    endloop
  endfacet
  facet normal 0 1 0
    outer loop
      vertex 85.875 0 83.3333
      vertex 84.8385 0 43.0933
      vertex 84.8385 0 81.9067
    endloop
  endfacet
  facet normal 0 1 0
    outer loop
      vertex 85.875 0 41.6667
      vertex 85.875 0 83.3333
      vertex 89.375 0 125
    endloop
  endfacet
  facet normal 0 1 0
    outer loop
      vertex 85.875 0 83.3333
      vertex 85.875 0 41.6667
      vertex 84.8385 0 43.0933
    endloop
  endfacet
  facet normal 0 1 0
    outer loop
      vertex 85.875 0 41.6667
      vertex 89.375 0 0
      vertex 84.8385 0 40.2401
    endloop
  endfacet
  facet normal 0 1 -0
    outer loop
      vertex 89.375 0 0
      vertex 85.875 0 41.6667
      vertex 89.375 0 125
    endloop
  endfacet
  facet normal 0 1 -0
    outer loop
      vertex 83.1615 0 84.215
      vertex 79.375 0 125
      vertex 84.8385 0 84.7599
    endloop
  endfacet
  facet normal 0 1 -0
    outer loop
      vertex 83.1615 0 82.4517
      vertex 79.375 0 125
      vertex 83.1615 0 84.215
    endloop
  endfacet
  facet normal 0 1 -0
    outer loop
      vertex 84.8385 0 43.0933
      vertex 83.1615 0 82.4517
      vertex 84.8385 0 81.9067
    endloop
  endfacet
  facet normal 0 1 0
    outer loop
      vertex 83.1615 0 42.5483
      vertex 83.1615 0 82.4517
      vertex 84.8385 0 43.0933
    endloop
  endfacet
  facet normal 0 1 0
    outer loop
      vertex 83.1615 0 82.4517
      vertex 83.1615 0 42.5483
      vertex 79.375 0 125
    endloop
  endfacet
  facet normal 0 1 0
    outer loop
      vertex 79.375 0 0
      vertex 83.1615 0 42.5483
      vertex 83.1615 0 40.785
    endloop
  endfacet
  facet normal 0 1 0
    outer loop
      vertex 79.375 0 0
      vertex 84.8385 0 40.2401
      vertex 89.375 0 0
    endloop
  endfacet
  facet normal 0 1 0
    outer loop
      vertex 83.1615 0 42.5483
      vertex 79.375 0 0
      vertex 79.375 0 125
    endloop
  endfacet
  facet normal 0 1 0
    outer loop
      vertex 84.8385 0 40.2401
      vertex 79.375 0 0
      vertex 83.1615 0 40.785
    endloop
  endfacet
  facet normal 0 1 0
    outer loop
      vertex -79.375 0 125
      vertex -83.9115 0 84.7599
      vertex -89.375 0 125
    endloop
  endfacet
  facet normal 0 1 0
    outer loop
      vertex -79.375 0 125
      vertex -82.875 0 83.3333
      vertex -83.9115 0 84.7599
    endloop
  endfacet
  facet normal 0 1 0
    outer loop
      vertex -82.875 0 83.3333
      vertex -83.9115 0 43.0933
      vertex -83.9115 0 81.9067
    endloop
  endfacet
  facet normal 0 1 0
    outer loop
      vertex -82.875 0 41.6667
      vertex -82.875 0 83.3333
      vertex -79.375 0 125
    endloop
  endfacet
  facet normal 0 1 0
    outer loop
      vertex -82.875 0 83.3333
      vertex -82.875 0 41.6667
      vertex -83.9115 0 43.0933
    endloop
  endfacet
  facet normal 0 1 0
    outer loop
      vertex -82.875 0 41.6667
      vertex -79.375 0 0
      vertex -83.9115 0 40.2401
    endloop
  endfacet
  facet normal 0 1 -0
    outer loop
      vertex -79.375 0 0
      vertex -82.875 0 41.6667
      vertex -79.375 0 125
    endloop
  endfacet
  facet normal 0 1 -0
    outer loop
      vertex -85.5885 0 84.215
      vertex -89.375 0 125
      vertex -83.9115 0 84.7599
    endloop
  endfacet
  facet normal 0 1 -0
    outer loop
      vertex -85.5885 0 82.4517
      vertex -89.375 0 125
      vertex -85.5885 0 84.215
    endloop
  endfacet
  facet normal 0 1 -0
    outer loop
      vertex -83.9115 0 43.0933
      vertex -85.5885 0 82.4517
      vertex -83.9115 0 81.9067
    endloop
  endfacet
  facet normal 0 1 0
    outer loop
      vertex -85.5885 0 42.5483
      vertex -85.5885 0 82.4517
      vertex -83.9115 0 43.0933
    endloop
  endfacet
  facet normal 0 1 0
    outer loop
      vertex -85.5885 0 82.4517
      vertex -85.5885 0 42.5483
      vertex -89.375 0 125
    endloop
  endfacet
  facet normal 0 1 0
    outer loop
      vertex -89.375 0 0
      vertex -85.5885 0 42.5483
      vertex -85.5885 0 40.785
    endloop
  endfacet
  facet normal 0 1 0
    outer loop
      vertex -89.375 0 0
      vertex -83.9115 0 40.2401
      vertex -79.375 0 0
    endloop
  endfacet
  facet normal 0 1 0
    outer loop
      vertex -85.5885 0 42.5483
      vertex -89.375 0 0
      vertex -89.375 0 125
    endloop
  endfacet
  facet normal 0 1 0
    outer loop
      vertex -83.9115 0 40.2401
      vertex -89.375 0 0
      vertex -85.5885 0 40.785
    endloop
  endfacet
  facet normal 0.309022 0 0.951055
    outer loop
      vertex 83.1615 0 40.785
      vertex 84.8385 -10 40.2401
      vertex 84.8385 0 40.2401
    endloop
  endfacet
  facet normal 0.309022 0 0.951055
    outer loop
      vertex 84.8385 -10 40.2401
      vertex 83.1615 0 40.785
      vertex 83.1615 -10 40.785
    endloop
  endfacet
  facet normal 0.309073 0 -0.951038
    outer loop
      vertex 83.1615 -10 42.5483
      vertex 84.8385 0 43.0933
      vertex 84.8385 -10 43.0933
    endloop
  endfacet
  facet normal 0.309073 0 -0.951038
    outer loop
      vertex 84.8385 0 43.0933
      vertex 83.1615 -10 42.5483
      vertex 83.1615 0 42.5483
    endloop
  endfacet
  facet normal -0.809013 0 -0.587791
    outer loop
      vertex 85.875 -10 41.6667
      vertex 84.8385 0 43.0933
      vertex 85.875 0 41.6667
    endloop
  endfacet
  facet normal -0.809013 -0 -0.587791
    outer loop
      vertex 84.8385 0 43.0933
      vertex 85.875 -10 41.6667
      vertex 84.8385 -10 43.0933
    endloop
  endfacet
  facet normal 1 -0 0
    outer loop
      vertex 83.1615 -10 42.5483
      vertex 83.1615 0 40.785
      vertex 83.1615 0 42.5483
    endloop
  endfacet
  facet normal 1 0 0
    outer loop
      vertex 83.1615 0 40.785
      vertex 83.1615 -10 42.5483
      vertex 83.1615 -10 40.785
    endloop
  endfacet
  facet normal -0.809013 0 0.587791
    outer loop
      vertex 84.8385 -10 40.2401
      vertex 85.875 0 41.6667
      vertex 84.8385 0 40.2401
    endloop
  endfacet
  facet normal -0.809013 0 0.587791
    outer loop
      vertex 85.875 0 41.6667
      vertex 84.8385 -10 40.2401
      vertex 85.875 -10 41.6667
    endloop
  endfacet
  facet normal 0.309073 0 0.951038
    outer loop
      vertex 83.1615 0 82.4517
      vertex 84.8385 -10 81.9067
      vertex 84.8385 0 81.9067
    endloop
  endfacet
  facet normal 0.309073 0 0.951038
    outer loop
      vertex 84.8385 -10 81.9067
      vertex 83.1615 0 82.4517
      vertex 83.1615 -10 82.4517
    endloop
  endfacet
  facet normal -0.809013 0 -0.587791
    outer loop
      vertex 85.875 -10 83.3333
      vertex 84.8385 0 84.7599
      vertex 85.875 0 83.3333
    endloop
  endfacet
  facet normal -0.809013 -0 -0.587791
    outer loop
      vertex 84.8385 0 84.7599
      vertex 85.875 -10 83.3333
      vertex 84.8385 -10 84.7599
    endloop
  endfacet
  facet normal 1 -0 0
    outer loop
      vertex 83.1615 -10 84.215
      vertex 83.1615 0 82.4517
      vertex 83.1615 0 84.215
    endloop
  endfacet
  facet normal 1 0 0
    outer loop
      vertex 83.1615 0 82.4517
      vertex 83.1615 -10 84.215
      vertex 83.1615 -10 82.4517
    endloop
  endfacet
  facet normal 0.309022 0 -0.951055
    outer loop
      vertex 83.1615 -10 84.215
      vertex 84.8385 0 84.7599
      vertex 84.8385 -10 84.7599
    endloop
  endfacet
  facet normal 0.309022 0 -0.951055
    outer loop
      vertex 84.8385 0 84.7599
      vertex 83.1615 -10 84.215
      vertex 83.1615 0 84.215
    endloop
  endfacet
  facet normal -0.809013 0 0.587791
    outer loop
      vertex 84.8385 -10 81.9067
      vertex 85.875 0 83.3333
      vertex 84.8385 0 81.9067
    endloop
  endfacet
  facet normal -0.809013 0 0.587791
    outer loop
      vertex 85.875 0 83.3333
      vertex 84.8385 -10 81.9067
      vertex 85.875 -10 83.3333
    endloop
  endfacet
  facet normal -0.587793 -0 -0.809011
    outer loop
      vertex 85.3175 -10 44.5674
      vertex 86.8425 -20.3654 43.4594
      vertex 85.3175 -25.0589 44.5674
    endloop
  endfacet
  facet normal -0.587793 0 -0.809011
    outer loop
      vertex 86.8425 -20.3654 43.4594
      vertex 85.3175 -10 44.5674
      vertex 86.8425 -10 43.4594
    endloop
  endfacet
  facet normal -0.951054 0 -0.309025
    outer loop
      vertex 87.425 -18.553 41.6667
      vertex 86.8425 -10 43.4594
      vertex 87.425 -10 41.6667
    endloop
  endfacet
  facet normal -0.951708 0.00221788 -0.306995
    outer loop
      vertex 86.8425 -20.3654 43.4594
      vertex 87.425 -18.553 41.6667
      vertex 87.4219 -18.5821 41.6761
    endloop
  endfacet
  facet normal -0.951054 0 -0.309025
    outer loop
      vertex 87.425 -18.553 41.6667
      vertex 86.8425 -20.3654 43.4594
      vertex 86.8425 -10 43.4594
    endloop
  endfacet
  facet normal 0 0 -1
    outer loop
      vertex 83.4325 -10 44.5674
      vertex 85.3175 -25.0589 44.5674
      vertex 83.4325 -30.8604 44.5674
    endloop
  endfacet
  facet normal 0 0 -1
    outer loop
      vertex 85.3175 -25.0589 44.5674
      vertex 83.4325 -10 44.5674
      vertex 85.3175 -10 44.5674
    endloop
  endfacet
  facet normal 0.587793 0 0.809011
    outer loop
      vertex 81.9075 -10 39.8739
      vertex 83.4325 -30.8604 38.7659
      vertex 83.4325 -10 38.7659
    endloop
  endfacet
  facet normal 0.587793 0 0.809011
    outer loop
      vertex 83.4325 -30.8604 38.7659
      vertex 81.9075 -10 39.8739
      vertex 81.9075 -35.5538 39.8739
    endloop
  endfacet
  facet normal -0 0 1
    outer loop
      vertex 83.4325 -10 38.7659
      vertex 85.3175 -25.0589 38.7659
      vertex 85.3175 -10 38.7659
    endloop
  endfacet
  facet normal 0 0 1
    outer loop
      vertex 85.3175 -25.0589 38.7659
      vertex 83.4325 -10 38.7659
      vertex 83.4325 -30.8604 38.7659
    endloop
  endfacet
  facet normal 0.951059 0 0.309009
    outer loop
      vertex 81.325 -10 41.6667
      vertex 81.9075 -35.5538 39.8739
      vertex 81.9075 -10 39.8739
    endloop
  endfacet
  facet normal 0.951059 -0 0.309009
    outer loop
      vertex 81.325 -36.9118 41.6667
      vertex 81.9075 -35.5538 39.8739
      vertex 81.325 -10 41.6667
    endloop
  endfacet
  facet normal 0.951085 -0.000116645 0.308929
    outer loop
      vertex 81.9075 -35.5538 39.8739
      vertex 81.325 -36.9118 41.6667
      vertex 81.6481 -36.3521 40.6722
    endloop
  endfacet
  facet normal 0.951054 0 -0.309025
    outer loop
      vertex 81.9075 -35.5538 43.4594
      vertex 81.325 -10 41.6667
      vertex 81.9075 -10 43.4594
    endloop
  endfacet
  facet normal 0.951064 -4.55771e-05 -0.308994
    outer loop
      vertex 81.325 -36.9118 41.6667
      vertex 81.9075 -35.5538 43.4594
      vertex 81.6481 -36.3521 42.6611
    endloop
  endfacet
  facet normal 0.951054 0 -0.309025
    outer loop
      vertex 81.9075 -35.5538 43.4594
      vertex 81.325 -36.9118 41.6667
      vertex 81.325 -10 41.6667
    endloop
  endfacet
  facet normal 0.587793 0 -0.809011
    outer loop
      vertex 81.9075 -10 43.4594
      vertex 83.4325 -30.8604 44.5674
      vertex 81.9075 -35.5538 43.4594
    endloop
  endfacet
  facet normal 0.587793 0 -0.809011
    outer loop
      vertex 83.4325 -30.8604 44.5674
      vertex 81.9075 -10 43.4594
      vertex 83.4325 -10 44.5674
    endloop
  endfacet
  facet normal -0.587793 0 0.809011
    outer loop
      vertex 85.3175 -10 38.7659
      vertex 86.8425 -20.3654 39.8739
      vertex 86.8425 -10 39.8739
    endloop
  endfacet
  facet normal -0.587793 0 0.809011
    outer loop
      vertex 86.8425 -20.3654 39.8739
      vertex 85.3175 -10 38.7659
      vertex 85.3175 -25.0589 38.7659
    endloop
  endfacet
  facet normal 0 -1 0
    outer loop
      vertex 83.1615 -10 42.5483
      vertex 83.4325 -10 44.5674
      vertex 81.9075 -10 43.4594
    endloop
  endfacet
  facet normal 0 -1 0
    outer loop
      vertex 83.4325 -10 44.5674
      vertex 84.8385 -10 43.0933
      vertex 85.3175 -10 44.5674
    endloop
  endfacet
  facet normal 0 -1 -0
    outer loop
      vertex 85.3175 -10 44.5674
      vertex 84.8385 -10 43.0933
      vertex 86.8425 -10 43.4594
    endloop
  endfacet
  facet normal 0 -1 -0
    outer loop
      vertex 83.4325 -10 44.5674
      vertex 83.1615 -10 42.5483
      vertex 84.8385 -10 43.0933
    endloop
  endfacet
  facet normal 0 -1 0
    outer loop
      vertex 81.325 -10 41.6667
      vertex 83.1615 -10 42.5483
      vertex 81.9075 -10 43.4594
    endloop
  endfacet
  facet normal 0 -1 0
    outer loop
      vertex 81.325 -10 41.6667
      vertex 83.1615 -10 40.785
      vertex 83.1615 -10 42.5483
    endloop
  endfacet
  facet normal 0 -1 0
    outer loop
      vertex 83.4325 -10 38.7659
      vertex 83.1615 -10 40.785
      vertex 81.9075 -10 39.8739
    endloop
  endfacet
  facet normal 0 -1 0
    outer loop
      vertex 81.9075 -10 39.8739
      vertex 83.1615 -10 40.785
      vertex 81.325 -10 41.6667
    endloop
  endfacet
  facet normal 0 -1 0
    outer loop
      vertex 85.875 -10 41.6667
      vertex 86.8425 -10 43.4594
      vertex 84.8385 -10 43.0933
    endloop
  endfacet
  facet normal 0 -1 0
    outer loop
      vertex 85.875 -10 41.6667
      vertex 87.425 -10 41.6667
      vertex 86.8425 -10 43.4594
    endloop
  endfacet
  facet normal 0 -1 0
    outer loop
      vertex 86.8425 -10 39.8739
      vertex 85.875 -10 41.6667
      vertex 84.8385 -10 40.2401
    endloop
  endfacet
  facet normal 0 -1 0
    outer loop
      vertex 85.875 -10 41.6667
      vertex 86.8425 -10 39.8739
      vertex 87.425 -10 41.6667
    endloop
  endfacet
  facet normal 0 -1 0
    outer loop
      vertex 83.1615 -10 40.785
      vertex 83.4325 -10 38.7659
      vertex 84.8385 -10 40.2401
    endloop
  endfacet
  facet normal 0 -1 0
    outer loop
      vertex 85.3175 -10 38.7659
      vertex 84.8385 -10 40.2401
      vertex 83.4325 -10 38.7659
    endloop
  endfacet
  facet normal 0 -1 0
    outer loop
      vertex 84.8385 -10 40.2401
      vertex 85.3175 -10 38.7659
      vertex 86.8425 -10 39.8739
    endloop
  endfacet
  facet normal -0.951059 0 0.309009
    outer loop
      vertex 86.8425 -10 39.8739
      vertex 87.425 -18.553 41.6667
      vertex 87.425 -10 41.6667
    endloop
  endfacet
  facet normal -0.951059 0 0.309009
    outer loop
      vertex 86.8425 -20.3654 39.8739
      vertex 87.425 -18.553 41.6667
      vertex 86.8425 -10 39.8739
    endloop
  endfacet
  facet normal -0.951716 0.00222611 0.306972
    outer loop
      vertex 87.425 -18.553 41.6667
      vertex 86.8425 -20.3654 39.8739
      vertex 87.4219 -18.5821 41.6573
    endloop
  endfacet
  facet normal 0.587793 0 0.809011
    outer loop
      vertex 81.9075 -10 81.5406
      vertex 83.4325 -30.8604 80.4326
      vertex 83.4325 -10 80.4326
    endloop
  endfacet
  facet normal 0.587793 0 0.809011
    outer loop
      vertex 83.4325 -30.8604 80.4326
      vertex 81.9075 -10 81.5406
      vertex 81.9075 -35.5538 81.5406
    endloop
  endfacet
  facet normal -0.587793 -0 -0.809011
    outer loop
      vertex 85.3175 -10 86.2341
      vertex 86.8425 -20.3654 85.1261
      vertex 85.3175 -25.0589 86.2341
    endloop
  endfacet
  facet normal -0.587793 0 -0.809011
    outer loop
      vertex 86.8425 -20.3654 85.1261
      vertex 85.3175 -10 86.2341
      vertex 86.8425 -10 85.1261
    endloop
  endfacet
  facet normal -0.951059 0 -0.309009
    outer loop
      vertex 87.425 -18.553 83.3333
      vertex 86.8425 -10 85.1261
      vertex 87.425 -10 83.3333
    endloop
  endfacet
  facet normal -0.951716 0.00222611 -0.306972
    outer loop
      vertex 86.8425 -20.3654 85.1261
      vertex 87.425 -18.553 83.3333
      vertex 87.4219 -18.5821 83.3427
    endloop
  endfacet
  facet normal -0.951059 0 -0.309009
    outer loop
      vertex 87.425 -18.553 83.3333
      vertex 86.8425 -20.3654 85.1261
      vertex 86.8425 -10 85.1261
    endloop
  endfacet
  facet normal 0 0 -1
    outer loop
      vertex 83.4325 -10 86.2341
      vertex 85.3175 -25.0589 86.2341
      vertex 83.4325 -30.8604 86.2341
    endloop
  endfacet
  facet normal 0 0 -1
    outer loop
      vertex 85.3175 -25.0589 86.2341
      vertex 83.4325 -10 86.2341
      vertex 85.3175 -10 86.2341
    endloop
  endfacet
  facet normal 0.587793 0 -0.809011
    outer loop
      vertex 81.9075 -10 85.1261
      vertex 83.4325 -30.8604 86.2341
      vertex 81.9075 -35.5538 85.1261
    endloop
  endfacet
  facet normal 0.587793 0 -0.809011
    outer loop
      vertex 83.4325 -30.8604 86.2341
      vertex 81.9075 -10 85.1261
      vertex 83.4325 -10 86.2341
    endloop
  endfacet
  facet normal 0.951059 0 -0.309009
    outer loop
      vertex 81.9075 -35.5538 85.1261
      vertex 81.325 -10 83.3333
      vertex 81.9075 -10 85.1261
    endloop
  endfacet
  facet normal 0.951085 -0.000116645 -0.308929
    outer loop
      vertex 81.325 -36.9118 83.3333
      vertex 81.9075 -35.5538 85.1261
      vertex 81.6481 -36.3521 84.3278
    endloop
  endfacet
  facet normal 0.951059 0 -0.309009
    outer loop
      vertex 81.9075 -35.5538 85.1261
      vertex 81.325 -36.9118 83.3333
      vertex 81.325 -10 83.3333
    endloop
  endfacet
  facet normal 0.951054 0 0.309025
    outer loop
      vertex 81.325 -10 83.3333
      vertex 81.9075 -35.5538 81.5406
      vertex 81.9075 -10 81.5406
    endloop
  endfacet
  facet normal 0.951054 -0 0.309025
    outer loop
      vertex 81.325 -36.9118 83.3333
      vertex 81.9075 -35.5538 81.5406
      vertex 81.325 -10 83.3333
    endloop
  endfacet
  facet normal 0.951064 -4.55771e-05 0.308994
    outer loop
      vertex 81.9075 -35.5538 81.5406
      vertex 81.325 -36.9118 83.3333
      vertex 81.6481 -36.3521 82.3389
    endloop
  endfacet
  facet normal -0.587793 0 0.809011
    outer loop
      vertex 85.3175 -10 80.4326
      vertex 86.8425 -20.3654 81.5406
      vertex 86.8425 -10 81.5406
    endloop
  endfacet
  facet normal -0.587793 0 0.809011
    outer loop
      vertex 86.8425 -20.3654 81.5406
      vertex 85.3175 -10 80.4326
      vertex 85.3175 -25.0589 80.4326
    endloop
  endfacet
  facet normal -0.951054 0 0.309025
    outer loop
      vertex 86.8425 -10 81.5406
      vertex 87.425 -18.553 83.3333
      vertex 87.425 -10 83.3333
    endloop
  endfacet
  facet normal -0.951054 0 0.309025
    outer loop
      vertex 86.8425 -20.3654 81.5406
      vertex 87.425 -18.553 83.3333
      vertex 86.8425 -10 81.5406
    endloop
  endfacet
  facet normal -0.951708 0.00221788 0.306995
    outer loop
      vertex 87.425 -18.553 83.3333
      vertex 86.8425 -20.3654 81.5406
      vertex 87.4219 -18.5821 83.3239
    endloop
  endfacet
  facet normal -0 0 1
    outer loop
      vertex 83.4325 -10 80.4326
      vertex 85.3175 -25.0589 80.4326
      vertex 85.3175 -10 80.4326
    endloop
  endfacet
  facet normal 0 0 1
    outer loop
      vertex 85.3175 -25.0589 80.4326
      vertex 83.4325 -10 80.4326
      vertex 83.4325 -30.8604 80.4326
    endloop
  endfacet
  facet normal 0 -1 0
    outer loop
      vertex 83.1615 -10 84.215
      vertex 83.4325 -10 86.2341
      vertex 81.9075 -10 85.1261
    endloop
  endfacet
  facet normal 0 -1 0
    outer loop
      vertex 83.4325 -10 86.2341
      vertex 84.8385 -10 84.7599
      vertex 85.3175 -10 86.2341
    endloop
  endfacet
  facet normal 0 -1 -0
    outer loop
      vertex 85.3175 -10 86.2341
      vertex 84.8385 -10 84.7599
      vertex 86.8425 -10 85.1261
    endloop
  endfacet
  facet normal 0 -1 -0
    outer loop
      vertex 83.4325 -10 86.2341
      vertex 83.1615 -10 84.215
      vertex 84.8385 -10 84.7599
    endloop
  endfacet
  facet normal 0 -1 0
    outer loop
      vertex 81.325 -10 83.3333
      vertex 83.1615 -10 84.215
      vertex 81.9075 -10 85.1261
    endloop
  endfacet
  facet normal 0 -1 0
    outer loop
      vertex 81.325 -10 83.3333
      vertex 83.1615 -10 82.4517
      vertex 83.1615 -10 84.215
    endloop
  endfacet
  facet normal 0 -1 0
    outer loop
      vertex 83.4325 -10 80.4326
      vertex 83.1615 -10 82.4517
      vertex 81.9075 -10 81.5406
    endloop
  endfacet
  facet normal 0 -1 0
    outer loop
      vertex 81.9075 -10 81.5406
      vertex 83.1615 -10 82.4517
      vertex 81.325 -10 83.3333
    endloop
  endfacet
  facet normal 0 -1 0
    outer loop
      vertex 85.875 -10 83.3333
      vertex 86.8425 -10 85.1261
      vertex 84.8385 -10 84.7599
    endloop
  endfacet
  facet normal 0 -1 0
    outer loop
      vertex 85.875 -10 83.3333
      vertex 87.425 -10 83.3333
      vertex 86.8425 -10 85.1261
    endloop
  endfacet
  facet normal 0 -1 0
    outer loop
      vertex 86.8425 -10 81.5406
      vertex 85.875 -10 83.3333
      vertex 84.8385 -10 81.9067
    endloop
  endfacet
  facet normal 0 -1 0
    outer loop
      vertex 85.875 -10 83.3333
      vertex 86.8425 -10 81.5406
      vertex 87.425 -10 83.3333
    endloop
  endfacet
  facet normal 0 -1 0
    outer loop
      vertex 83.1615 -10 82.4517
      vertex 83.4325 -10 80.4326
      vertex 84.8385 -10 81.9067
    endloop
  endfacet
  facet normal 0 -1 0
    outer loop
      vertex 85.3175 -10 80.4326
      vertex 84.8385 -10 81.9067
      vertex 83.4325 -10 80.4326
    endloop
  endfacet
  facet normal 0 -1 0
    outer loop
      vertex 84.8385 -10 81.9067
      vertex 85.3175 -10 80.4326
      vertex 86.8425 -10 81.5406
    endloop
  endfacet
  facet normal 0.309022 0 0.951055
    outer loop
      vertex -85.5885 0 40.785
      vertex -83.9115 -10 40.2401
      vertex -83.9115 0 40.2401
    endloop
  endfacet
  facet normal 0.309022 0 0.951055
    outer loop
      vertex -83.9115 -10 40.2401
      vertex -85.5885 0 40.785
      vertex -85.5885 -10 40.785
    endloop
  endfacet
  facet normal -0.809013 0 -0.587791
    outer loop
      vertex -82.875 -10 41.6667
      vertex -83.9115 0 43.0933
      vertex -82.875 0 41.6667
    endloop
  endfacet
  facet normal -0.809013 -0 -0.587791
    outer loop
      vertex -83.9115 0 43.0933
      vertex -82.875 -10 41.6667
      vertex -83.9115 -10 43.0933
    endloop
  endfacet
  facet normal 1 -0 0
    outer loop
      vertex -85.5885 -10 42.5483
      vertex -85.5885 0 40.785
      vertex -85.5885 0 42.5483
    endloop
  endfacet
  facet normal 1 0 0
    outer loop
      vertex -85.5885 0 40.785
      vertex -85.5885 -10 42.5483
      vertex -85.5885 -10 40.785
    endloop
  endfacet
  facet normal 0.309073 0 -0.951038
    outer loop
      vertex -85.5885 -10 42.5483
      vertex -83.9115 0 43.0933
      vertex -83.9115 -10 43.0933
    endloop
  endfacet
  facet normal 0.309073 0 -0.951038
    outer loop
      vertex -83.9115 0 43.0933
      vertex -85.5885 -10 42.5483
      vertex -85.5885 0 42.5483
    endloop
  endfacet
  facet normal -0.809013 0 0.587791
    outer loop
      vertex -83.9115 -10 40.2401
      vertex -82.875 0 41.6667
      vertex -83.9115 0 40.2401
    endloop
  endfacet
  facet normal -0.809013 0 0.587791
    outer loop
      vertex -82.875 0 41.6667
      vertex -83.9115 -10 40.2401
      vertex -82.875 -10 41.6667
    endloop
  endfacet
  facet normal 0.309073 0 0.951038
    outer loop
      vertex -85.5885 0 82.4517
      vertex -83.9115 -10 81.9067
      vertex -83.9115 0 81.9067
    endloop
  endfacet
  facet normal 0.309073 0 0.951038
    outer loop
      vertex -83.9115 -10 81.9067
      vertex -85.5885 0 82.4517
      vertex -85.5885 -10 82.4517
    endloop
  endfacet
  facet normal -0.809013 0 -0.587791
    outer loop
      vertex -82.875 -10 83.3333
      vertex -83.9115 0 84.7599
      vertex -82.875 0 83.3333
    endloop
  endfacet
  facet normal -0.809013 -0 -0.587791
    outer loop
      vertex -83.9115 0 84.7599
      vertex -82.875 -10 83.3333
      vertex -83.9115 -10 84.7599
    endloop
  endfacet
  facet normal 1 -0 0
    outer loop
      vertex -85.5885 -10 84.215
      vertex -85.5885 0 82.4517
      vertex -85.5885 0 84.215
    endloop
  endfacet
  facet normal 1 0 0
    outer loop
      vertex -85.5885 0 82.4517
      vertex -85.5885 -10 84.215
      vertex -85.5885 -10 82.4517
    endloop
  endfacet
  facet normal 0.309022 0 -0.951055
    outer loop
      vertex -85.5885 -10 84.215
      vertex -83.9115 0 84.7599
      vertex -83.9115 -10 84.7599
    endloop
  endfacet
  facet normal 0.309022 0 -0.951055
    outer loop
      vertex -83.9115 0 84.7599
      vertex -85.5885 -10 84.215
      vertex -85.5885 0 84.215
    endloop
  endfacet
  facet normal -0.809013 0 0.587791
    outer loop
      vertex -83.9115 -10 81.9067
      vertex -82.875 0 83.3333
      vertex -83.9115 0 81.9067
    endloop
  endfacet
  facet normal -0.809013 0 0.587791
    outer loop
      vertex -82.875 0 83.3333
      vertex -83.9115 -10 81.9067
      vertex -82.875 -10 83.3333
    endloop
  endfacet
  facet normal -0.587793 0 -0.809011
    outer loop
      vertex -83.4325 -30.8604 44.5674
      vertex -81.9075 -10 43.4594
      vertex -81.9075 -35.5538 43.4594
    endloop
  endfacet
  facet normal -0.587793 0 -0.809011
    outer loop
      vertex -81.9075 -10 43.4594
      vertex -83.4325 -30.8604 44.5674
      vertex -83.4325 -10 44.5674
    endloop
  endfacet
  facet normal -0.951054 0 -0.309025
    outer loop
      vertex -81.325 -10 41.6667
      vertex -81.9075 -35.5538 43.4594
      vertex -81.9075 -10 43.4594
    endloop
  endfacet
  facet normal -0.951054 0 -0.309025
    outer loop
      vertex -81.325 -36.9118 41.6667
      vertex -81.9075 -35.5538 43.4594
      vertex -81.325 -10 41.6667
    endloop
  endfacet
  facet normal -0.951064 -4.55771e-05 -0.308994
    outer loop
      vertex -81.9075 -35.5538 43.4594
      vertex -81.325 -36.9118 41.6667
      vertex -81.6481 -36.3521 42.6611
    endloop
  endfacet
  facet normal 0 0 -1
    outer loop
      vertex -85.3175 -25.0589 44.5674
      vertex -83.4325 -10 44.5674
      vertex -83.4325 -30.8604 44.5674
    endloop
  endfacet
  facet normal -0 0 -1
    outer loop
      vertex -83.4325 -10 44.5674
      vertex -85.3175 -25.0589 44.5674
      vertex -85.3175 -10 44.5674
    endloop
  endfacet
  facet normal 0.587793 -0 0.809011
    outer loop
      vertex -86.8425 -20.3654 39.8739
      vertex -85.3175 -10 38.7659
      vertex -86.8425 -10 39.8739
    endloop
  endfacet
  facet normal 0.587793 0 0.809011
    outer loop
      vertex -85.3175 -10 38.7659
      vertex -86.8425 -20.3654 39.8739
      vertex -85.3175 -25.0589 38.7659
    endloop
  endfacet
  facet normal 0 0 1
    outer loop
      vertex -85.3175 -25.0589 38.7659
      vertex -83.4325 -10 38.7659
      vertex -85.3175 -10 38.7659
    endloop
  endfacet
  facet normal 0 0 1
    outer loop
      vertex -83.4325 -10 38.7659
      vertex -85.3175 -25.0589 38.7659
      vertex -83.4325 -30.8604 38.7659
    endloop
  endfacet
  facet normal 0.951059 -0 0.309009
    outer loop
      vertex -87.425 -18.553 41.6667
      vertex -86.8425 -10 39.8739
      vertex -87.425 -10 41.6667
    endloop
  endfacet
  facet normal 0.951716 0.00222611 0.306972
    outer loop
      vertex -86.8425 -20.3654 39.8739
      vertex -87.425 -18.553 41.6667
      vertex -87.4219 -18.5821 41.6573
    endloop
  endfacet
  facet normal 0.951059 0 0.309009
    outer loop
      vertex -87.425 -18.553 41.6667
      vertex -86.8425 -20.3654 39.8739
      vertex -86.8425 -10 39.8739
    endloop
  endfacet
  facet normal 0.951054 0 -0.309025
    outer loop
      vertex -86.8425 -10 43.4594
      vertex -87.425 -18.553 41.6667
      vertex -87.425 -10 41.6667
    endloop
  endfacet
  facet normal 0.951054 0 -0.309025
    outer loop
      vertex -86.8425 -20.3654 43.4594
      vertex -87.425 -18.553 41.6667
      vertex -86.8425 -10 43.4594
    endloop
  endfacet
  facet normal 0.951708 0.00221788 -0.306995
    outer loop
      vertex -87.425 -18.553 41.6667
      vertex -86.8425 -20.3654 43.4594
      vertex -87.4219 -18.5821 41.6761
    endloop
  endfacet
  facet normal 0.587793 0 -0.809011
    outer loop
      vertex -86.8425 -20.3654 43.4594
      vertex -85.3175 -10 44.5674
      vertex -85.3175 -25.0589 44.5674
    endloop
  endfacet
  facet normal 0.587793 0 -0.809011
    outer loop
      vertex -85.3175 -10 44.5674
      vertex -86.8425 -20.3654 43.4594
      vertex -86.8425 -10 43.4594
    endloop
  endfacet
  facet normal -0.587793 0 0.809011
    outer loop
      vertex -83.4325 -30.8604 38.7659
      vertex -81.9075 -10 39.8739
      vertex -83.4325 -10 38.7659
    endloop
  endfacet
  facet normal -0.587793 0 0.809011
    outer loop
      vertex -81.9075 -10 39.8739
      vertex -83.4325 -30.8604 38.7659
      vertex -81.9075 -35.5538 39.8739
    endloop
  endfacet
  facet normal 0 -1 0
    outer loop
      vertex -85.5885 -10 42.5483
      vertex -85.3175 -10 44.5674
      vertex -86.8425 -10 43.4594
    endloop
  endfacet
  facet normal 0 -1 0
    outer loop
      vertex -85.3175 -10 44.5674
      vertex -83.9115 -10 43.0933
      vertex -83.4325 -10 44.5674
    endloop
  endfacet
  facet normal 0 -1 -0
    outer loop
      vertex -83.4325 -10 44.5674
      vertex -83.9115 -10 43.0933
      vertex -81.9075 -10 43.4594
    endloop
  endfacet
  facet normal 0 -1 -0
    outer loop
      vertex -85.3175 -10 44.5674
      vertex -85.5885 -10 42.5483
      vertex -83.9115 -10 43.0933
    endloop
  endfacet
  facet normal 0 -1 0
    outer loop
      vertex -87.425 -10 41.6667
      vertex -85.5885 -10 42.5483
      vertex -86.8425 -10 43.4594
    endloop
  endfacet
  facet normal 0 -1 0
    outer loop
      vertex -87.425 -10 41.6667
      vertex -85.5885 -10 40.785
      vertex -85.5885 -10 42.5483
    endloop
  endfacet
  facet normal 0 -1 0
    outer loop
      vertex -85.3175 -10 38.7659
      vertex -85.5885 -10 40.785
      vertex -86.8425 -10 39.8739
    endloop
  endfacet
  facet normal 0 -1 0
    outer loop
      vertex -86.8425 -10 39.8739
      vertex -85.5885 -10 40.785
      vertex -87.425 -10 41.6667
    endloop
  endfacet
  facet normal 0 -1 0
    outer loop
      vertex -82.875 -10 41.6667
      vertex -81.9075 -10 43.4594
      vertex -83.9115 -10 43.0933
    endloop
  endfacet
  facet normal 0 -1 0
    outer loop
      vertex -82.875 -10 41.6667
      vertex -81.325 -10 41.6667
      vertex -81.9075 -10 43.4594
    endloop
  endfacet
  facet normal 0 -1 0
    outer loop
      vertex -81.9075 -10 39.8739
      vertex -82.875 -10 41.6667
      vertex -83.9115 -10 40.2401
    endloop
  endfacet
  facet normal 0 -1 0
    outer loop
      vertex -82.875 -10 41.6667
      vertex -81.9075 -10 39.8739
      vertex -81.325 -10 41.6667
    endloop
  endfacet
  facet normal 0 -1 0
    outer loop
      vertex -85.5885 -10 40.785
      vertex -85.3175 -10 38.7659
      vertex -83.9115 -10 40.2401
    endloop
  endfacet
  facet normal 0 -1 0
    outer loop
      vertex -83.4325 -10 38.7659
      vertex -83.9115 -10 40.2401
      vertex -85.3175 -10 38.7659
    endloop
  endfacet
  facet normal 0 -1 0
    outer loop
      vertex -83.9115 -10 40.2401
      vertex -83.4325 -10 38.7659
      vertex -81.9075 -10 39.8739
    endloop
  endfacet
  facet normal -0.951059 0 0.309009
    outer loop
      vertex -81.9075 -35.5538 39.8739
      vertex -81.325 -10 41.6667
      vertex -81.9075 -10 39.8739
    endloop
  endfacet
  facet normal -0.951085 -0.000116645 0.308929
    outer loop
      vertex -81.325 -36.9118 41.6667
      vertex -81.9075 -35.5538 39.8739
      vertex -81.6481 -36.3521 40.6722
    endloop
  endfacet
  facet normal -0.951059 0 0.309009
    outer loop
      vertex -81.9075 -35.5538 39.8739
      vertex -81.325 -36.9118 41.6667
      vertex -81.325 -10 41.6667
    endloop
  endfacet
  facet normal 0.587793 -0 0.809011
    outer loop
      vertex -86.8425 -20.3654 81.5406
      vertex -85.3175 -10 80.4326
      vertex -86.8425 -10 81.5406
    endloop
  endfacet
  facet normal 0.587793 0 0.809011
    outer loop
      vertex -85.3175 -10 80.4326
      vertex -86.8425 -20.3654 81.5406
      vertex -85.3175 -25.0589 80.4326
    endloop
  endfacet
  facet normal -0.587793 0 -0.809011
    outer loop
      vertex -83.4325 -30.8604 86.2341
      vertex -81.9075 -10 85.1261
      vertex -81.9075 -35.5538 85.1261
    endloop
  endfacet
  facet normal -0.587793 0 -0.809011
    outer loop
      vertex -81.9075 -10 85.1261
      vertex -83.4325 -30.8604 86.2341
      vertex -83.4325 -10 86.2341
    endloop
  endfacet
  facet normal -0.951059 0 -0.309009
    outer loop
      vertex -81.325 -10 83.3333
      vertex -81.9075 -35.5538 85.1261
      vertex -81.9075 -10 85.1261
    endloop
  endfacet
  facet normal -0.951059 0 -0.309009
    outer loop
      vertex -81.325 -36.9118 83.3333
      vertex -81.9075 -35.5538 85.1261
      vertex -81.325 -10 83.3333
    endloop
  endfacet
  facet normal -0.951085 -0.000116645 -0.308929
    outer loop
      vertex -81.9075 -35.5538 85.1261
      vertex -81.325 -36.9118 83.3333
      vertex -81.6481 -36.3521 84.3278
    endloop
  endfacet
  facet normal 0 0 -1
    outer loop
      vertex -85.3175 -25.0589 86.2341
      vertex -83.4325 -10 86.2341
      vertex -83.4325 -30.8604 86.2341
    endloop
  endfacet
  facet normal -0 0 -1
    outer loop
      vertex -83.4325 -10 86.2341
      vertex -85.3175 -25.0589 86.2341
      vertex -85.3175 -10 86.2341
    endloop
  endfacet
  facet normal 0.587793 0 -0.809011
    outer loop
      vertex -86.8425 -20.3654 85.1261
      vertex -85.3175 -10 86.2341
      vertex -85.3175 -25.0589 86.2341
    endloop
  endfacet
  facet normal 0.587793 0 -0.809011
    outer loop
      vertex -85.3175 -10 86.2341
      vertex -86.8425 -20.3654 85.1261
      vertex -86.8425 -10 85.1261
    endloop
  endfacet
  facet normal 0.951059 0 -0.309009
    outer loop
      vertex -86.8425 -10 85.1261
      vertex -87.425 -18.553 83.3333
      vertex -87.425 -10 83.3333
    endloop
  endfacet
  facet normal 0.951059 0 -0.309009
    outer loop
      vertex -86.8425 -20.3654 85.1261
      vertex -87.425 -18.553 83.3333
      vertex -86.8425 -10 85.1261
    endloop
  endfacet
  facet normal 0.951716 0.00222611 -0.306972
    outer loop
      vertex -87.425 -18.553 83.3333
      vertex -86.8425 -20.3654 85.1261
      vertex -87.4219 -18.5821 83.3427
    endloop
  endfacet
  facet normal 0.951054 -0 0.309025
    outer loop
      vertex -87.425 -18.553 83.3333
      vertex -86.8425 -10 81.5406
      vertex -87.425 -10 83.3333
    endloop
  endfacet
  facet normal 0.951708 0.00221788 0.306995
    outer loop
      vertex -86.8425 -20.3654 81.5406
      vertex -87.425 -18.553 83.3333
      vertex -87.4219 -18.5821 83.3239
    endloop
  endfacet
  facet normal 0.951054 0 0.309025
    outer loop
      vertex -87.425 -18.553 83.3333
      vertex -86.8425 -20.3654 81.5406
      vertex -86.8425 -10 81.5406
    endloop
  endfacet
  facet normal -0.587793 0 0.809011
    outer loop
      vertex -83.4325 -30.8604 80.4326
      vertex -81.9075 -10 81.5406
      vertex -83.4325 -10 80.4326
    endloop
  endfacet
  facet normal -0.587793 0 0.809011
    outer loop
      vertex -81.9075 -10 81.5406
      vertex -83.4325 -30.8604 80.4326
      vertex -81.9075 -35.5538 81.5406
    endloop
  endfacet
  facet normal -0.951054 0 0.309025
    outer loop
      vertex -81.9075 -35.5538 81.5406
      vertex -81.325 -10 83.3333
      vertex -81.9075 -10 81.5406
    endloop
  endfacet
  facet normal -0.951064 -4.55771e-05 0.308994
    outer loop
      vertex -81.325 -36.9118 83.3333
      vertex -81.9075 -35.5538 81.5406
      vertex -81.6481 -36.3521 82.3389
    endloop
  endfacet
  facet normal -0.951054 0 0.309025
    outer loop
      vertex -81.9075 -35.5538 81.5406
      vertex -81.325 -36.9118 83.3333
      vertex -81.325 -10 83.3333
    endloop
  endfacet
  facet normal 0 0 1
    outer loop
      vertex -85.3175 -25.0589 80.4326
      vertex -83.4325 -10 80.4326
      vertex -85.3175 -10 80.4326
    endloop
  endfacet
  facet normal 0 0 1
    outer loop
      vertex -83.4325 -10 80.4326
      vertex -85.3175 -25.0589 80.4326
      vertex -83.4325 -30.8604 80.4326
    endloop
  endfacet
  facet normal 0 -1 0
    outer loop
      vertex -85.5885 -10 84.215
      vertex -85.3175 -10 86.2341
      vertex -86.8425 -10 85.1261
    endloop
  endfacet
  facet normal 0 -1 0
    outer loop
      vertex -85.3175 -10 86.2341
      vertex -83.9115 -10 84.7599
      vertex -83.4325 -10 86.2341
    endloop
  endfacet
  facet normal 0 -1 -0
    outer loop
      vertex -83.4325 -10 86.2341
      vertex -83.9115 -10 84.7599
      vertex -81.9075 -10 85.1261
    endloop
  endfacet
  facet normal 0 -1 -0
    outer loop
      vertex -85.3175 -10 86.2341
      vertex -85.5885 -10 84.215
      vertex -83.9115 -10 84.7599
    endloop
  endfacet
  facet normal 0 -1 0
    outer loop
      vertex -87.425 -10 83.3333
      vertex -85.5885 -10 84.215
      vertex -86.8425 -10 85.1261
    endloop
  endfacet
  facet normal 0 -1 0
    outer loop
      vertex -87.425 -10 83.3333
      vertex -85.5885 -10 82.4517
      vertex -85.5885 -10 84.215
    endloop
  endfacet
  facet normal 0 -1 0
    outer loop
      vertex -85.3175 -10 80.4326
      vertex -85.5885 -10 82.4517
      vertex -86.8425 -10 81.5406
    endloop
  endfacet
  facet normal 0 -1 0
    outer loop
      vertex -86.8425 -10 81.5406
      vertex -85.5885 -10 82.4517
      vertex -87.425 -10 83.3333
    endloop
  endfacet
  facet normal 0 -1 0
    outer loop
      vertex -82.875 -10 83.3333
      vertex -81.9075 -10 85.1261
      vertex -83.9115 -10 84.7599
    endloop
  endfacet
  facet normal 0 -1 0
    outer loop
      vertex -82.875 -10 83.3333
      vertex -81.325 -10 83.3333
      vertex -81.9075 -10 85.1261
    endloop
  endfacet
  facet normal 0 -1 0
    outer loop
      vertex -81.9075 -10 81.5406
      vertex -82.875 -10 83.3333
      vertex -83.9115 -10 81.9067
    endloop
  endfacet
  facet normal 0 -1 0
    outer loop
      vertex -82.875 -10 83.3333
      vertex -81.9075 -10 81.5406
      vertex -81.325 -10 83.3333
    endloop
  endfacet
  facet normal 0 -1 0
    outer loop
      vertex -85.5885 -10 82.4517
      vertex -85.3175 -10 80.4326
      vertex -83.9115 -10 81.9067
    endloop
  endfacet
  facet normal 0 -1 0
    outer loop
      vertex -83.4325 -10 80.4326
      vertex -83.9115 -10 81.9067
      vertex -85.3175 -10 80.4326
    endloop
  endfacet
  facet normal 0 -1 0
    outer loop
      vertex -83.9115 -10 81.9067
      vertex -83.4325 -10 80.4326
      vertex -81.9075 -10 81.5406
    endloop
  endfacet
endsolid OpenSCAD_Model
